<?xml version="1.0" encoding="UTF-8"?>
<svg width="38px" height="37px" viewBox="0 0 38 37" version="1.1" xmlns="http://www.w3.org/2000/svg" xmlns:xlink="http://www.w3.org/1999/xlink">
    <!-- Generator: Sketch 47.1 (45422) - http://www.bohemiancoding.com/sketch -->
    <title>Group 42</title>
    <desc>Created with Sketch.</desc>
    <defs></defs>
    <g id="Page-1" stroke="none" stroke-width="1" fill="none" fill-rule="evenodd" stroke-linecap="round" stroke-linejoin="round">
        <g id="Artboard" transform="translate(-82.000000, -406.000000)" stroke="#FFFFFF">
            <g id="Icons" transform="translate(34.000000, 158.000000)">
                <g id="Group-42" transform="translate(49.000000, 249.000000)">
                    <polyline id="Stroke-220" points="22.3448276 26.0689655 1.24137931 26.0689655 1.24137931 14.8965517"></polyline>
                    <polyline id="Stroke-221" points="11.1724138 6.20689655 29.7931034 6.20689655 29.7931034 17.3793103"></polyline>
                    <path d="M16.137931,26.0689655 L16.137931,32.2758621" id="Stroke-222"></path>
                    <path d="M8.68965517,31.0344828 L21.1034483,31.0344828" id="Stroke-223"></path>
                    <path d="M1.24137931,19.862069 L22.3448276,19.862069" id="Stroke-224"></path>
                    <polygon id="Stroke-225" points="0 11.1724138 7.44827586 11.1724138 7.44827586 0 0 0"></polygon>
                    <polygon id="Stroke-226" points="26.0689655 34.7586207 36 34.7586207 36 19.862069 26.0689655 19.862069"></polygon>
                    <path d="M3.72413793,7.44827586 L4.96551724,7.44827586" id="Stroke-227"></path>
                    <path d="M26.0689655,31.0344828 L36,31.0344828" id="Stroke-228"></path>
                    <path d="M21.1034483,9.93103448 L26.0689655,14.8965517" id="Stroke-229"></path>
                    <path d="M26.0689655,8.68965517 L27.3103448,9.93103448" id="Stroke-230"></path>
                </g>
            </g>
        </g>
    </g>
</svg>