<?xml version="1.0" encoding="UTF-8"?>
<svg width="36px" height="36px" viewBox="0 0 36 36" version="1.1" xmlns="http://www.w3.org/2000/svg" xmlns:xlink="http://www.w3.org/1999/xlink">
    <!-- Generator: Sketch 47.1 (45422) - http://www.bohemiancoding.com/sketch -->
    <title>iconfinder-icon (1)</title>
    <desc>Created with Sketch.</desc>
    <defs></defs>
    <g id="Page-1" stroke="none" stroke-width="1" fill="none" fill-rule="evenodd">
        <g id="iconfinder-icon-(1)" fill-rule="nonzero" fill="#FFFFFF">
            <g id="Layer-1">
                <path d="M33.75,0 L2.25,0 C1.0063125,0 0,1.0063125 0,2.25 L0,33.75 C0,34.9936875 1.0063125,36 2.25,36 L33.75,36 C34.9936875,36 36,34.9936875 36,33.75 L36,2.25 C36,1.0063125 34.9936875,0 33.75,0 Z M13.5,18 C13.5,18 13.8559219,13.5 18,13.5 C22.1440781,13.5 22.5,18 22.5,18 C22.5,18 22.6296563,22.5 18,22.5 C13.3703438,22.5 13.5,18 13.5,18 Z M31.5,31.5 L4.5,31.5 L4.5,15.75 L9,15.75 L9.31851563,15.75 C9.13183594,16.4728828 9,17.2177734 9,18 C9,22.97025 13.02975,27 18,27 C22.97025,27 27,22.97025 27,18 C27,17.2177734 26.8681641,16.4728828 26.6814141,15.75 L27,15.75 L31.5,15.75 L31.5,31.5 Z M31.5,11.25 L24.75,11.25 L24.75,4.5 L31.5,4.5 L31.5,11.25 Z" id="svg_1"></path>
            </g>
        </g>
    </g>
</svg>