<?xml version="1.0" encoding="UTF-8"?>
<svg width="36px" height="36px" viewBox="0 0 36 36" version="1.1" xmlns="http://www.w3.org/2000/svg" xmlns:xlink="http://www.w3.org/1999/xlink">
    <!-- Generator: Sketch 47.1 (45422) - http://www.bohemiancoding.com/sketch -->
    <title>Group 5</title>
    <desc>Created with Sketch.</desc>
    <defs></defs>
    <g id="Page-1" stroke="none" stroke-width="1" fill="none" fill-rule="evenodd" stroke-linecap="round" stroke-linejoin="round">
        <g id="Artboard" transform="translate(-226.000000, -214.000000)" stroke="#FFFFFF">
            <g id="Icons" transform="translate(34.000000, 158.000000)">
                <g id="Group-5" transform="translate(192.000000, 56.000000)">
                    <polygon id="Stroke-757" points="17.25 14.25 26.25 23.25 19.875 35.25 7.125 35.25 0.75 23.25 9.75 14.25 9.75 6.75 6.75 0.75 20.25 0.75 17.25 6.75"></polygon>
                    <polyline id="Stroke-758" points="24.75 17.25 24.75 11.25 23.25 5.25 35.25 5.25 33.75 11.25 33.75 32.25 29.25 35.25 24.75 32.25"></polyline>
                    <path d="M6.75,27.75 L20.25,27.75" id="Stroke-759"></path>
                    <path d="M29.25,27.75 L33.75,27.75" id="Stroke-760"></path>
                    <path d="M29.25,23.25 L33.75,23.25" id="Stroke-761"></path>
                    <path d="M29.25,18.75 L33.75,18.75" id="Stroke-762"></path>
                </g>
            </g>
        </g>
    </g>
</svg>