<?xml version="1.0" encoding="UTF-8"?>
<svg width="36px" height="36px" viewBox="0 0 36 36" version="1.1" xmlns="http://www.w3.org/2000/svg" xmlns:xlink="http://www.w3.org/1999/xlink">
    <!-- Generator: Sketch 47.1 (45422) - http://www.bohemiancoding.com/sketch -->
    <title>linkedin</title>
    <desc>Created with Sketch.</desc>
    <defs></defs>
    <g id="Page-1" stroke="none" stroke-width="1" fill="none" fill-rule="evenodd">
        <g id="linkedin" fill-rule="nonzero" fill="#FFFFFF">
            <path d="M7.89677419,36 L0.232258065,36 L0.232258065,10.2857143 L7.89677419,10.2857143 L7.89677419,36 Z M36,36 L28.3354839,36 L28.3354839,22.2634286 C28.3354839,18.684 27.0682839,16.902 24.5568774,16.902 C22.5666581,16.902 21.3045677,17.8997143 20.6709677,19.8977143 C20.6709677,23.1428571 20.6709677,36 20.6709677,36 L13.0064516,36 C13.0064516,36 13.1086452,12.8571429 13.0064516,10.2857143 L19.0563097,10.2857143 L19.5238452,15.4285714 L19.6822452,15.4285714 C21.253471,12.8571429 23.7648774,11.1137143 27.2088,11.1137143 C29.8275097,11.1137143 31.945471,11.8465714 33.5626839,13.6877143 C35.1901161,15.5314286 36,18.0051429 36,21.4791429 L36,36 Z" id="svg_2"></path>
            <ellipse id="svg_4" cx="4.06451613" cy="3.85714286" rx="3.96" ry="3.85714286"></ellipse>
        </g>
    </g>
</svg>