<?xml version="1.0" encoding="UTF-8"?>
<svg width="38px" height="39px" viewBox="0 0 38 39" version="1.1" xmlns="http://www.w3.org/2000/svg" xmlns:xlink="http://www.w3.org/1999/xlink">
    <!-- Generator: Sketch 47.1 (45422) - http://www.bohemiancoding.com/sketch -->
    <title>Group 70</title>
    <desc>Created with Sketch.</desc>
    <defs></defs>
    <g id="Page-1" stroke="none" stroke-width="1" fill="none" fill-rule="evenodd" stroke-linecap="round" stroke-linejoin="round">
        <g id="Artboard" transform="translate(-466.000000, -502.000000)" stroke="#FFFFFF">
            <g id="Icons" transform="translate(34.000000, 157.000000)">
                <g id="Group-70" transform="translate(433.000000, 345.000000)">
                    <polygon id="Stroke-770" points="25.3636364 17.1818182 31.9090909 10.6363636 25.3636364 4.09090909 10.6363636 4.09090909 4.09090909 10.6363636 10.6363636 17.1818182"></polygon>
                    <polygon id="Stroke-771" points="16.3636364 11.4545455 13.9090909 13.0909091 11.4545455 11.4545455 11.4545455 9 13.9090909 7.36363636 16.3636364 9"></polygon>
                    <polygon id="Stroke-772" points="19.6363636 11.4545455 22.0909091 13.0909091 24.5454545 11.4545455 24.5454545 9 22.0909091 7.36363636 19.6363636 9"></polygon>
                    <path d="M18,0.818181818 L18,4.09090909" id="Stroke-773"></path>
                    <polygon id="Stroke-774" points="24.5454545 38.4545455 11.4545455 38.4545455 9 26.1818182 13.0892727 22.0909091 22.9090909 22.0909091 27 26.1818182"></polygon>
                    <path d="M18,17.1818182 L18,22.0909091" id="Stroke-775"></path>
                    <path d="M10.7993455,35.1818182 L25.2009818,35.1818182" id="Stroke-776"></path>
                    <polyline id="Stroke-777" points="3.27272727 26.1818182 4.09090909 31.0909091 9.66272727 29.4987273"></polyline>
                    <polyline id="Stroke-778" points="0 20.4545455 0 22.9090909 3.27272727 26.1818182 6.54545455 22.9090909 6.54545455 20.4545455"></polyline>
                    <polyline id="Stroke-779" points="32.7272727 26.1818182 31.9090909 31.0909091 26.3863636 29.25"></polyline>
                    <polyline id="Stroke-780" points="36 20.4545455 36 22.9090909 32.7272727 26.1818182 29.4545455 22.9090909 29.4545455 20.4545455"></polyline>
                </g>
            </g>
        </g>
    </g>
</svg>